# xmcd
#
# Track frame offsets:
#	150
#	18549
#	37724
#	58785
#	77148
#	94578
#	110500
#	128044
#	149279
#	166985
#
# Disc length: 2458 seconds
#
# Revision: 1
# Processed by: cddbd v1.5.2PL0 Copyright (c) Steve Scherf et al.
# Submitted via: audiograbber 1.83.01
#
DISCID=7a09980a
DTITLE=Russell Hitchcock - Tennessee/ The Nashville Sessions CD1
DYEAR=2011
DGENRE=Country
TTITLE0=Fallin
TTITLE1=It's Ok
TTITLE2=You Can Always Count On Me
TTITLE3=It's You
TTITLE4=It Don't Mean A Thingt
TTITLE5=Always
TTITLE6=These Walls
TTITLE7=Good To See You Again
TTITLE8=Desperate
TTITLE9=For The Freeway Home
EXTD=
EXTT0=
EXTT1=
EXTT2=
EXTT3=
EXTT4=
EXTT5=
EXTT6=
EXTT7=
EXTT8=
EXTT9=
PLAYORDER=
